<?xml version="1.0" encoding="UTF-8"?>
<svg version="1.1" xmlns="http://www.w3.org/2000/svg" width="179" height="152">
<path d="M0 0 C7.3998153 0.70474431 11.72741182 4.31264271 16.34033203 9.79589844 C19.65067122 14.19215354 22.24664504 19.02217108 24.9375 23.8125 C25.9287298 25.55376651 26.91997106 27.29502662 27.91191101 29.03588867 C28.93543478 30.83431727 29.95576044 32.6345307 30.97558594 34.43505859 C34.14026609 40.01616588 37.35310909 45.56952629 40.5625 51.125 C41.49340454 52.73918823 41.49340454 52.73918823 42.44311523 54.38598633 C46.60722241 61.60330177 50.79645444 68.80559535 55 76 C63.88572745 91.21088507 72.70247727 106.46154195 81.43359375 121.76171875 C81.80083557 122.40515228 82.16807739 123.04858582 82.54644775 123.71151733 C84.33211862 126.84081582 86.1162388 129.97098394 87.89794922 133.10253906 C88.53619629 134.22241211 89.17444336 135.34228516 89.83203125 136.49609375 C90.39639893 137.48794678 90.9607666 138.4797998 91.54223633 139.50170898 C92.63338555 141.37170228 93.79904121 143.19856182 95 145 C95 146.32 95 147.64 95 149 C76.1371676 146.37440428 59.41228852 140.8162169 45 128 C44.16855469 127.26523438 43.33710937 126.53046875 42.48046875 125.7734375 C39.18796351 122.82990747 35.90574652 119.89154492 32.7578125 116.79296875 C26.1846345 110.48879981 19.25602862 107.01209554 10.0625 106.4375 C-5.21100178 107.27670339 -17.53853459 119.34528118 -28.625 128.75 C-39.34403839 137.61815338 -53.72373241 146.18461139 -67.984375 146.09765625 C-68.91894531 146.09443359 -69.85351562 146.09121094 -70.81640625 146.08789062 C-71.78449219 146.07951172 -72.75257812 146.07113281 -73.75 146.0625 C-74.73355469 146.05798828 -75.71710938 146.05347656 -76.73046875 146.04882812 C-79.15370791 146.03706483 -81.57682273 146.02062684 -84 146 C-81.73716444 140.05391328 -78.74173809 134.47994048 -75.82495117 128.83691406 C-74.82769705 126.90444864 -73.83849285 124.96800904 -72.84960938 123.03125 C-62.14488997 102.20477287 -62.14488997 102.20477287 -55 96 C-54.278125 95.319375 -53.55625 94.63875 -52.8125 93.9375 C-45.7599699 89.07909038 -37.64510843 87.25019142 -29.3125 85.875 C-27.87729004 85.62254517 -27.87729004 85.62254517 -26.41308594 85.36499023 C-20.8689431 84.40886288 -15.34158807 83.67114692 -9.75 83.0625 C-3.34007037 82.25684181 1.57024067 80.47668205 7 77 C8.0725 76.319375 9.145 75.63875 10.25 74.9375 C14.55589338 71.11140616 16.891708 65.24830136 19 60 C19 59.01 19 58.02 19 57 C0.24941419 52.08181356 -17.49456342 55.25641864 -35 63 C-35 58.53290769 -34.19712909 57.11937749 -31.9921875 53.328125 C-31.0163269 51.63562622 -31.0163269 51.63562622 -30.02075195 49.90893555 C-29.30576821 48.68913388 -28.59051134 47.46949227 -27.875 46.25 C-27.14798291 44.99755703 -26.42167185 43.74470398 -25.69604492 42.49145508 C-24.20598684 39.92131601 -22.71078353 37.35427524 -21.21142578 34.78955078 C-19.12587077 31.22040854 -17.05930152 27.64070216 -14.99609375 24.05859375 C-13.76871515 21.93461492 -12.54087386 19.81090339 -11.3125 17.6875 C-10.46824463 16.22328613 -10.46824463 16.22328613 -9.60693359 14.72949219 C-6.6315222 9.61878555 -3.52891147 4.74668055 0 0 Z " fill="#00B65F" transform="translate(84,2)"/>
<path d="M0 0 C-0.66 0.33 -1.32 0.66 -2 1 C-1.17757812 1.47308594 -0.35515625 1.94617188 0.4921875 2.43359375 C8.11171515 6.94724004 14.63019724 11.78440103 21 18 C21.83724609 18.79664063 21.83724609 18.79664063 22.69140625 19.609375 C24.46561698 21.32798368 25.88809662 22.77619324 27 25 C27.66 25.33 28.32 25.66 29 26 C29 26.99 29 27.98 29 29 C23.44234405 27.19376181 23.44234405 27.19376181 21.171875 26.19921875 C13.68256248 22.98733879 7.04670055 22.9640708 -0.625 25.75 C-11.07355008 30.48344868 -19.94284123 38.38486973 -28.625 45.75 C-39.34403839 54.61815338 -53.72373241 63.18461139 -67.984375 63.09765625 C-68.91894531 63.09443359 -69.85351562 63.09121094 -70.81640625 63.08789062 C-71.78449219 63.07951172 -72.75257812 63.07113281 -73.75 63.0625 C-74.73355469 63.05798828 -75.71710938 63.05347656 -76.73046875 63.04882812 C-79.15370791 63.03706483 -81.57682273 63.02062684 -84 63 C-81.73716444 57.05391328 -78.74173809 51.47994048 -75.82495117 45.83691406 C-74.82769705 43.90444864 -73.83849285 41.96800904 -72.84960938 40.03125 C-62.14488997 19.20477287 -62.14488997 19.20477287 -55 13 C-54.278125 12.319375 -53.55625 11.63875 -52.8125 10.9375 C-45.76151433 6.08015432 -37.64450944 4.24650284 -29.3125 2.875 C-28.36076904 2.71104736 -27.40903809 2.54709473 -26.4284668 2.37817383 C-23.62139796 1.90201055 -20.8120458 1.44575001 -18 1 C-16.80117187 0.80978271 -16.80117187 0.80978271 -15.578125 0.61572266 C-3.6822365 -1.22741217 -3.6822365 -1.22741217 0 0 Z " fill="#027567" transform="translate(84,85)"/>
<path d="M0 0 C12.65197517 4.17158401 22.15013429 12.20323508 31 22 C31.33 22.66 31.66 23.32 32 24 C32.66 24.33 33.32 24.66 34 25 C34 25.99 34 26.98 34 28 C30.22454612 26.90931332 27.52956528 26.0916909 25 23 C25.66 22.34 26.32 21.68 27 21 C19.28094889 12.48471439 10.33721683 6.87604567 0 2 C0 1.34 0 0.68 0 0 Z " fill="#00945A" transform="translate(79,86)"/>
<path d="M0 0 C0.96325195 0.00459229 1.92650391 0.00918457 2.91894531 0.01391602 C19.12779172 0.22014586 19.12779172 0.22014586 25.1875 3.25 C25.1875 3.91 25.1875 4.57 25.1875 5.25 C24.1975 5.25 23.2075 5.25 22.1875 5.25 C21.8575 6.9 21.5275 8.55 21.1875 10.25 C20.1875 7.25 20.1875 7.25 20.1875 4.25 C6.94111518 0.77553841 -7.50506331 1.27508401 -20.8125 4.25 C-19.8125 2.25 -19.8125 2.25 -18.1262207 1.62597656 C-12.03533603 0.28250838 -6.22709186 -0.06123054 0 0 Z " fill="#00452C" transform="translate(82.8125,54.75)"/>
<path d="M0 0 C2.49552403 2.27597646 4.06622986 4.60721178 5.6875 7.5625 C6.12449219 8.34753906 6.56148437 9.13257812 7.01171875 9.94140625 C8 12 8 12 8 14 C5.00779732 12.63629701 2.70973471 11.05091917 0.25 8.875 C-0.36359375 8.33617188 -0.9771875 7.79734375 -1.609375 7.2421875 C-2.06828125 6.83226563 -2.5271875 6.42234375 -3 6 C-2.67 5.34 -2.34 4.68 -2 4 C-1.34 4.33 -0.68 4.66 0 5 C0 3.35 0 1.7 0 0 Z " fill="#008348" transform="translate(131,66)"/>
<path d="M0 0 C1.14926266 0.95421808 2.29430541 1.91352045 3.4375 2.875 C4.07558594 3.40867187 4.71367188 3.94234375 5.37109375 4.4921875 C7 6 7 6 8 8 C8.66 8.33 9.32 8.66 10 9 C10 9.99 10 10.98 10 12 C6.22454612 10.90931332 3.52956528 10.0916909 1 7 C1.66 6.34 2.32 5.68 3 5 C2.2575 4.319375 2.2575 4.319375 1.5 3.625 C0 2 0 2 0 0 Z " fill="#00854F" transform="translate(103,102)"/>
<path d="M0 0 C5.75 0.75 5.75 0.75 8 3 C6.63875 2.9071875 6.63875 2.9071875 5.25 2.8125 C1.67389735 3.01881361 0.49451413 3.50548587 -2 6 C-2.33 6.99 -2.66 7.98 -3 9 C-3.66 9 -4.32 9 -5 9 C-3.7508258 5.54074837 -2.32472205 2.85306797 0 0 Z " fill="#00683C" transform="translate(84,2)"/>
<path d="M0 0 C0.86625 0.4640625 0.86625 0.4640625 1.75 0.9375 C4.21905868 2.19285032 4.21905868 2.19285032 8 3 C4.7 4.32 1.4 5.64 -2 7 C-2 3 -2 3 0 0 Z " fill="#005E38" transform="translate(51,58)"/>
<path d="M0 0 C2.97 0.495 2.97 0.495 6 1 C6 1.66 6 2.32 6 3 C5.01 3 4.02 3 3 3 C2.67 4.65 2.34 6.3 2 8 C1.10869587 5.3260876 0.52268466 2.76276177 0 0 Z " fill="#006D3E" transform="translate(102,57)"/>
</svg>
