<?xml version="1.0" standalone="no"?>
<!DOCTYPE svg PUBLIC "-//W3C//DTD SVG 20010904//EN"
 "http://www.w3.org/TR/2001/REC-SVG-20010904/DTD/svg10.dtd">
<svg version="1.0" xmlns="http://www.w3.org/2000/svg"
 width="512.000000pt" height="512.000000pt" viewBox="0 0 512.000000 512.000000"
 preserveAspectRatio="xMidYMid meet">

<g transform="translate(0.000000,512.000000) scale(0.100000,-0.100000)"
fill="#000000" stroke="none">
<path d="M3955 4393 c20 -52 78 -306 97 -428 29 -189 32 -597 5 -780 -89 -596
-342 -1120 -746 -1547 -76 -81 -81 -88 -62 -98 11 -6 33 -32 48 -58 27 -45 28
-53 28 -182 0 -74 -4 -290 -8 -480 -10 -378 -4 -444 47 -555 76 -168 288 -257
611 -259 131 -1 160 2 225 22 140 44 245 136 306 267 111 240 122 566 48 1415
-13 157 -33 395 -44 530 -81 1008 -232 1629 -512 2103 -39 64 -58 87 -43 50z"/>
<path d="M534 824 c53 -448 202 -691 480 -780 109 -35 281 -44 376 -19 162 42
301 156 384 315 56 106 69 174 64 332 -2 76 -7 141 -11 144 -3 4 -53 -1 -109
-9 -340 -53 -724 -39 -1048 39 -58 13 -113 27 -124 30 -17 6 -18 2 -12 -52z"/>
</g>
</svg>
